<svg width="40" height="40" viewBox="0 0 40 40" fill="none" xmlns="http://www.w3.org/2000/svg">
<g clip-path="url(#clip0_1297_1520)">
<g clip-path="url(#clip1_1297_1520)">
<g clip-path="url(#clip2_1297_1520)">
<path d="M23.1167 2.23845C26.6948 2.61565 30.037 4.2034 32.5906 6.73912C35.1442 9.27484 36.7563 12.6067 37.1602 16.1835M23.1167 9.26367C24.8432 9.60428 26.4275 10.4563 27.664 11.709C28.9005 12.9617 29.732 14.5574 30.0507 16.2889M37.0724 28.4425V33.7114C37.0744 34.2006 36.9743 34.6847 36.7784 35.1329C36.5826 35.5811 36.2953 35.9834 35.935 36.314C35.5748 36.6447 35.1495 36.8965 34.6864 37.0532C34.2232 37.2099 33.7325 37.2681 33.2456 37.224C27.8438 36.6368 22.6551 34.7901 18.0962 31.8322C13.8548 29.1357 10.2588 25.5379 7.56358 21.2944C4.59687 16.7125 2.75062 11.4959 2.17441 6.06719C2.13054 5.58152 2.18823 5.09202 2.34381 4.62988C2.49938 4.16773 2.74944 3.74306 3.07804 3.38289C3.40665 3.02273 3.80662 2.73497 4.25247 2.53794C4.69833 2.3409 5.18031 2.23891 5.66772 2.23845H10.9341C11.786 2.23006 12.6119 2.53189 13.2578 3.08768C13.9038 3.64347 14.3257 4.4153 14.4449 5.25929C14.6672 6.94546 15.0794 8.60106 15.6737 10.1945C15.9099 10.8231 15.961 11.5063 15.821 12.1631C15.681 12.8199 15.3557 13.4228 14.8838 13.9003L12.6544 16.1308C15.1533 20.5278 18.7922 24.1685 23.187 26.6687L25.4164 24.4382C25.8936 23.9659 26.4962 23.6405 27.1527 23.5004C27.8092 23.3604 28.492 23.4115 29.1203 23.6478C30.713 24.2424 32.3678 24.6548 34.0531 24.8772C34.9058 24.9976 35.6846 25.4273 36.2413 26.0847C36.798 26.742 37.0938 27.5812 37.0724 28.4425Z" stroke="#FF6363" stroke-width="3" stroke-linecap="round" stroke-linejoin="round"/>
</g>
</g>
</g>
<defs>
<clipPath id="clip0_1297_1520">
<rect width="39" height="39" fill="white" transform="translate(0.160156 0.238281)"/>
</clipPath>
<clipPath id="clip1_1297_1520">
<rect width="39" height="39" fill="white" transform="translate(0.160156 0.238281)"/>
</clipPath>
<clipPath id="clip2_1297_1520">
<rect width="39" height="39" fill="white" transform="translate(0.160156 0.238281)"/>
</clipPath>
</defs>
</svg>
